<?xml version="1.0" standalone="no"?>
<!DOCTYPE svg PUBLIC "-//W3C//DTD SVG 20010904//EN"
 "http://www.w3.org/TR/2001/REC-SVG-20010904/DTD/svg10.dtd">
<svg version="1.0" xmlns="http://www.w3.org/2000/svg"
 width="300.000000pt" height="200.000000pt" viewBox="0 0 300.000000 200.000000"
 preserveAspectRatio="xMidYMid meet">
<metadata>
Created by potrace 1.10, written by Peter Selinger 2001-2011
</metadata>
<g transform="translate(0.000000,200.000000) scale(0.100000,-0.100000)"
fill="#000000" stroke="none">
<path d="M2995 1000 c0 -553 1 -779 2 -502 2 276 2 728 0 1005 -1 276 -2 50
-2 -503z"/>
<path d="M1468 1765 c-4 -4 -27 -9 -50 -11 -80 -7 -218 -56 -293 -104 -16 -11
-41 -26 -55 -34 -28 -16 -170 -163 -170 -175 0 -5 18 -11 39 -15 22 -3 43 -11
46 -16 9 -14 -27 -60 -43 -55 -8 3 -10 0 -6 -6 3 -6 8 -30 10 -53 2 -32 10
-47 35 -68 18 -16 41 -28 50 -28 18 0 79 -63 79 -82 0 -10 2 -10 9 1 6 9 11
10 15 2 9 -15 51 -14 76 1 15 10 22 9 37 -4 10 -8 29 -21 43 -27 27 -12 27
-13 -33 31 -16 12 -16 15 -2 36 10 13 27 22 41 22 14 0 22 4 19 10 -4 6 6 10
21 10 31 0 94 38 94 57 0 19 -20 26 -26 8 -10 -24 -58 -45 -104 -45 l-40 0 0
40 c0 22 5 49 12 59 24 39 -22 72 -52 36 -10 -13 -10 -19 2 -33 9 -9 18 -45
21 -79 5 -57 3 -63 -14 -63 -14 0 -19 7 -19 28 0 84 -19 119 -56 105 -13 -5
-15 -15 -9 -49 l6 -44 -60 0 c-49 0 -65 4 -90 26 -61 51 -31 147 50 160 22 4
39 12 39 20 0 7 12 26 26 43 51 61 147 48 181 -24 9 -19 22 -35 29 -35 7 0 18
-2 26 -5 8 -3 17 7 24 30 6 19 7 35 3 35 -5 0 -9 -6 -9 -14 0 -30 -17 -24 -68
23 -41 38 -59 48 -91 49 -48 3 -91 -17 -121 -55 -30 -39 -87 -63 -117 -49 -26
13 -23 36 11 76 31 38 125 117 174 146 73 44 265 103 249 77 -4 -6 10 -2 30 8
21 11 55 19 78 19 61 0 216 -35 263 -59 23 -11 52 -21 64 -21 33 1 -60 48
-140 71 -70 20 -223 35 -234 24z m-272 -586 c21 -24 7 -51 -25 -47 -30 4 -43
44 -17 54 9 4 17 19 17 38 l2 31 4 -30 c3 -16 11 -37 19 -46z"/>
<path d="M1485 1688 c-18 -27 -31 -72 -40 -148 -5 -32 -14 -60 -24 -66 -13
-10 -11 -11 11 -7 l27 5 -6 -78 c-3 -44 -7 -80 -9 -82 -1 -2 -12 1 -23 8 -24
13 -28 30 -6 30 10 0 15 10 15 33 0 22 -3 28 -9 18 -7 -11 -10 -9 -16 8 -10
33 -25 15 -25 -30 0 -36 6 -46 53 -90 28 -28 64 -57 79 -65 29 -15 29 -20 1
-83 -13 -28 -13 -44 -4 -89 15 -73 15 -73 -12 -67 -17 5 -33 -1 -56 -21 -26
-22 -31 -32 -26 -54 6 -28 6 -28 -62 -34 -37 -3 -118 -6 -179 -5 -108 0 -111
0 -128 -25 -17 -27 -52 -37 -43 -12 11 28 -27 47 -88 45 -52 -2 -55 -4 -39
-16 11 -9 36 -13 60 -11 36 3 40 0 42 -20 1 -13 -2 -21 -7 -18 -5 3 -14 -14
-20 -38 -6 -24 -14 -52 -17 -62 -4 -11 29 16 72 59 l79 77 79 0 c58 0 77 -3
73 -12 -2 -7 -9 -12 -15 -11 -5 1 -48 -32 -96 -73 l-85 -76 15 -29 c8 -16 19
-27 24 -24 5 3 12 0 16 -6 4 -8 3 -9 -4 -5 -20 12 -14 -3 25 -68 42 -69 48
-74 123 -99 60 -20 127 -17 186 8 28 11 35 11 45 -1 8 -10 34 -14 85 -14 84 0
85 1 98 93 6 38 11 47 27 47 18 0 19 -6 17 -67 l-3 -68 86 -3 c72 -2 88 0 93
13 3 9 2 13 -4 10 -6 -3 -10 1 -10 9 0 30 66 46 113 28 14 -6 3 -18 -58 -62
-97 -71 -188 -109 -274 -114 -36 -3 -77 -9 -90 -14 -25 -9 -40 -7 -183 27
-126 29 -259 97 -227 116 22 14 -6 25 -66 25 l-65 0 -42 75 c-24 41 -46 75
-49 75 -3 0 -12 -33 -20 -72 l-15 -73 -64 2 c-48 1 -65 5 -64 15 1 7 18 82 38
166 21 84 36 158 33 165 -2 7 3 17 12 24 24 18 5 28 -21 11 -19 -13 -30 -46
-66 -198 l-44 -182 28 -29 c27 -29 31 -30 108 -27 l79 3 11 39 11 39 28 -41
c22 -34 33 -42 58 -42 17 0 45 -11 63 -25 49 -38 194 -102 261 -115 33 -7 105
-13 160 -12 162 0 284 38 412 127 49 35 68 43 78 35 8 -6 44 -10 86 -8 l73 3
8 33 c7 24 14 32 32 32 21 0 24 7 34 62 10 59 9 64 -11 83 -21 20 -22 22 -9
103 14 81 13 84 -8 107 -19 20 -20 27 -11 61 6 22 14 77 18 124 4 49 12 90 20
98 21 21 15 61 -13 87 -15 14 -37 55 -50 92 -22 64 -97 186 -130 214 -12 10
-13 9 -8 -7 4 -10 15 -31 26 -45 25 -38 88 -174 88 -192 0 -9 8 -21 18 -26 14
-9 11 -10 -16 -11 -45 0 -89 -25 -107 -60 -19 -37 -19 -65 1 -123 11 -33 13
-51 5 -64 -10 -17 -10 -17 -11 3 0 27 -49 103 -87 135 -47 40 -48 65 -4 93 21
13 54 40 74 59 32 30 37 40 37 81 0 37 -5 52 -25 70 -22 20 -25 32 -25 87 0
113 -29 170 -79 154 -11 -3 -38 -21 -61 -39 -42 -33 -43 -34 -79 -19 -26 11
-54 14 -102 9 -62 -5 -67 -4 -90 20 -24 26 -70 54 -88 54 -5 0 -17 -10 -26
-22z m91 -30 c36 -32 41 -33 123 -34 67 0 95 -5 128 -22 43 -22 74 -53 37 -37
-10 5 -32 8 -49 7 -97 -3 -169 0 -184 10 -13 8 -25 6 -49 -6 -31 -16 -36 -43
-5 -32 18 7 56 -12 48 -24 -3 -5 1 -22 9 -37 17 -31 20 -16 7 38 -7 32 -6 36
9 32 11 -3 23 -22 30 -49 7 -24 16 -44 20 -44 5 0 18 20 30 45 31 65 64 58 36
-7 -5 -10 -6 -23 -4 -30 3 -7 11 4 18 24 17 47 48 64 89 50 19 -7 31 -7 31 -1
0 5 -5 9 -11 9 -5 0 -8 4 -4 9 3 5 0 13 -6 17 -14 8 7 24 33 24 12 0 16 -6 13
-20 -2 -11 1 -20 8 -20 8 0 8 -3 -1 -12 -8 -8 -7 -17 7 -37 35 -51 34 -56 -3
-23 -32 28 -44 33 -70 28 -49 -10 -56 -26 -10 -26 45 0 79 -20 87 -50 7 -28
-14 -25 -43 5 -48 51 -124 16 -132 -60 -2 -18 2 -30 9 -30 6 0 15 -3 19 -7 4
-5 11 -8 16 -8 4 0 -1 9 -12 20 -11 11 -20 26 -19 33 0 6 7 2 16 -10 16 -24
47 -30 59 -12 5 8 9 8 14 -1 12 -20 23 27 11 47 -6 10 -11 12 -11 6 0 -18 -30
-16 -30 1 0 8 8 17 17 20 23 9 45 -21 40 -56 -2 -15 0 -25 5 -22 4 3 8 12 8
20 0 8 5 12 11 9 6 -4 8 -14 5 -22 -3 -8 -1 -11 4 -8 6 3 15 3 21 -1 18 -11
-92 -45 -131 -39 l-35 4 40 -14 c23 -8 59 -12 85 -9 l45 5 -24 -20 c-22 -20
-22 -21 -3 -21 35 0 45 25 40 95 -6 71 5 92 42 80 24 -8 44 -41 36 -61 -8 -20
-44 -17 -49 4 -3 9 -5 3 -6 -15 0 -17 -3 -37 -4 -45 -2 -7 -2 -10 0 -5 3 4 16
7 30 7 25 0 26 0 8 -20 -10 -11 -26 -20 -36 -20 -10 0 -24 -8 -31 -19 -42 -59
-208 -92 -332 -67 -92 19 -105 25 -144 58 -38 32 -40 38 -9 31 18 -5 20 -3 10
8 -21 22 -16 24 41 21 30 -2 63 1 73 7 15 10 14 10 -9 5 -28 -6 -118 23 -118
39 0 5 4 5 10 2 5 -3 7 0 4 8 -3 8 -1 18 5 22 6 3 11 -1 11 -9 0 -8 4 -17 9
-20 4 -3 6 6 3 20 -5 25 21 64 42 64 6 0 4 -5 -4 -10 -8 -5 -15 -25 -16 -45
-1 -24 2 -32 7 -23 7 11 9 11 9 -1 0 -7 6 -11 15 -7 8 3 15 0 15 -6 0 -9 3 -9
12 0 17 17 33 15 18 -3 -11 -13 -10 -14 4 -9 11 4 16 18 16 45 0 72 -64 104
-111 54 -30 -31 -44 -32 -45 -1 -2 30 40 51 86 44 35 -5 39 6 9 22 -16 9 -26
8 -44 -4 -37 -25 -40 -19 -9 21 15 20 21 33 13 28 -11 -6 -12 -5 -2 5 8 9 9
19 2 32 -11 21 -3 23 34 9 14 -6 27 -7 30 -5 6 6 -66 74 -77 74 -13 0 -35 -66
-42 -128 -3 -34 -10 -62 -14 -62 -10 0 7 124 24 164 19 46 43 47 92 4z m401
-19 c17 -35 29 -191 14 -169 -6 8 -11 35 -11 60 0 69 -11 121 -27 127 -8 3
-31 -10 -53 -32 -25 -24 -40 -33 -45 -25 -4 6 -5 12 -4 14 2 1 19 14 38 30 40
32 71 31 88 -5z m223 -414 c25 -14 25 -14 -10 -8 l-35 6 28 -23 c19 -15 25
-26 18 -33 -5 -5 -7 -15 -5 -22 3 -7 -4 -15 -15 -18 -19 -4 -21 -13 -21 -72 0
-68 -14 -108 -46 -136 -29 -25 -63 -30 -74 -11 -8 15 -10 15 -11 -3 -1 -11 -2
-25 -2 -30 0 -15 -54 -18 -63 -4 -4 8 -3 9 4 5 7 -4 12 -3 12 2 0 15 -34 41
-68 53 -18 6 -32 17 -32 24 0 24 19 64 39 84 17 17 25 18 60 9 40 -10 48 -21
64 -93 4 -17 5 -17 6 3 0 13 6 32 11 43 8 14 6 34 -5 74 -14 45 -14 62 -5 91
21 62 94 91 150 59z m-607 -31 c19 -19 245 -18 290 1 12 5 17 3 17 -9 0 -18
-25 -30 -105 -51 -48 -12 -50 -12 -65 11 -8 13 -21 24 -30 24 -10 0 -7 -5 8
-16 14 -10 22 -25 21 -42 -2 -24 -2 -24 -6 -5 -4 21 -37 53 -55 53 -5 0 -17
-9 -28 -20 -11 -11 -20 -16 -20 -11 0 6 10 17 23 26 l22 16 -26 -6 c-17 -4
-33 0 -50 14 -13 11 -19 20 -13 21 6 0 14 -3 17 -6z m27 -103 c0 -24 32 -51
60 -51 27 0 52 20 63 53 9 24 47 22 47 -3 0 -24 -68 -122 -80 -115 -4 3 -13
-2 -20 -10 -11 -13 -17 -12 -51 7 -49 27 -65 52 -74 111 -8 52 -17 58 -33 25
l-11 -23 0 22 c-2 49 8 53 55 25 24 -15 44 -33 44 -41z m294 44 c20 -8 36 -20
36 -25 0 -6 6 -10 14 -10 7 0 21 -11 30 -25 9 -14 12 -25 6 -25 -5 0 -10 5
-10 11 0 8 -18 10 -60 5 -37 -4 -67 -3 -80 4 -32 17 -23 2 11 -19 42 -26 18
-39 -27 -15 -27 15 -34 25 -34 49 0 25 6 33 38 47 20 9 38 17 38 17 1 1 18 -6
38 -14z m-234 -5 c0 -5 5 -9 12 -7 14 2 18 -23 6 -39 -4 -6 -19 -9 -33 -6 -19
3 -25 11 -25 29 0 13 4 21 10 18 6 -3 10 -1 10 4 0 6 5 11 10 11 6 0 10 -4 10
-10z m509 -97 c-8 -81 -16 -120 -30 -139 -5 -6 -6 -14 -2 -17 3 -4 -15 -7 -42
-7 l-48 0 33 23 c60 40 75 71 75 148 0 40 4 69 10 69 7 0 8 -27 4 -77z m-353
-13 c33 -16 41 -25 37 -41 -5 -18 -7 -18 -31 6 -13 14 -33 25 -43 25 -11 0
-19 7 -19 15 0 20 5 19 56 -5z m-5 -49 c29 -29 38 -64 20 -76 -5 -3 -13 0 -17
6 -4 8 -9 7 -15 -2 -7 -11 -9 -10 -9 3 0 21 -37 48 -65 48 -14 -1 -11 -5 13
-15 28 -12 33 -19 30 -42 -2 -20 -9 -29 -25 -31 -22 -3 -28 6 -24 37 2 7 -2
10 -8 6 -6 -3 -11 -15 -11 -26 0 -10 -7 -19 -15 -19 -10 0 -15 10 -15 28 0 20
-3 23 -9 12 -6 -8 -7 -18 -5 -22 3 -4 1 -8 -5 -8 -17 0 -22 17 -12 42 6 16 25
31 56 42 43 17 50 17 88 2 40 -15 41 -15 21 2 -12 9 -30 22 -40 29 -18 11 -18
12 -1 12 10 1 32 -12 48 -28z m-254 -11 c36 -22 59 -55 43 -65 -5 -3 -10 -1
-10 6 0 7 -3 10 -6 6 -3 -3 -17 6 -31 21 -14 15 -20 19 -13 10 18 -26 9 -62
-17 -66 -22 -3 -26 3 -25 38 1 8 -4 3 -11 -13 -13 -32 -29 -31 -38 4 -7 23 -7
23 -8 2 -1 -25 -16 -31 -24 -10 -2 6 0 23 4 37 9 24 8 24 -6 6 -8 -11 -15 -15
-15 -9 0 5 10 18 22 29 12 10 18 13 14 7 -9 -16 -1 -15 44 2 45 18 40 18 77
-5z m344 -60 c10 -6 19 -20 19 -31 0 -19 -2 -19 -21 -5 -12 8 -28 12 -35 9 -9
-3 -14 2 -14 16 0 23 20 27 51 11z m-438 -67 c24 -14 33 -27 35 -52 5 -51 -6
-80 -38 -99 -27 -17 -28 -19 -9 -30 45 -29 12 -123 -54 -153 -51 -23 -162 -25
-212 -5 -35 15 -65 59 -65 96 0 18 6 20 51 20 42 0 56 -5 75 -25 29 -31 76
-33 105 -4 30 30 10 49 -52 49 -51 0 -54 4 -43 48 6 19 13 22 55 22 58 0 100
30 78 56 -18 22 -67 17 -94 -10 -20 -20 -30 -23 -74 -18 -28 2 -51 6 -51 9 0
12 31 60 48 76 52 47 180 57 245 20z m423 -1 c-3 -10 -12 -46 -21 -82 -9 -36
-25 -70 -35 -77 -26 -19 -38 -126 -16 -148 9 -9 16 -25 16 -36 0 -17 -8 -19
-68 -19 -38 0 -71 2 -74 5 -10 10 4 55 15 48 7 -4 8 5 4 26 -4 20 -3 30 3 26
6 -3 10 -3 10 2 0 4 3 17 6 29 5 19 1 20 -58 18 l-63 -2 2 -43 c1 -30 0 -38
-6 -24 -7 16 -9 14 -14 -15 -4 -18 -5 -35 -2 -38 3 -3 5 3 5 13 0 10 2 16 5
13 4 -3 3 -17 -1 -32 -6 -25 -9 -26 -75 -26 -38 0 -69 2 -69 3 0 2 6 17 14 33
8 16 29 100 47 186 l34 158 64 0 c49 0 61 -3 54 -12 -10 -12 -34 -102 -33
-122 0 -4 27 -9 59 -10 l59 -1 11 54 c6 30 11 64 11 75 0 19 5 21 60 18 51 -3
60 -6 56 -20z m84 9 c0 -5 -13 -19 -30 -31 l-30 -21 0 25 c0 23 3 26 53 35 4
0 7 -3 7 -8z m200 -3 c0 -7 -7 -48 -15 -91 -20 -103 -19 -107 9 -107 18 0 23
-5 21 -17 -14 -71 -15 -73 -40 -73 -20 0 -25 -6 -31 -35 -6 -34 -8 -35 -49
-35 -24 0 -51 -3 -61 -7 -14 -5 -16 -2 -11 19 4 15 10 33 13 42 5 14 -7 16
-95 16 -111 0 -108 -2 -90 65 8 30 35 64 107 136 l97 97 73 1 c51 1 72 -3 72
-11z m-455 -13 c16 0 18 -60 2 -74 -20 -16 -47 -3 -47 23 0 38 12 66 24 59 6
-4 16 -8 21 -8z m-551 -120 c3 -8 17 -15 31 -15 20 0 25 -5 25 -24 0 -27 -13
-34 -75 -37 -67 -5 -82 17 -44 65 23 29 54 34 63 11z m12 -325 c5 -5 46 -23
89 -39 92 -34 88 -41 -6 -11 -58 18 -129 59 -103 60 5 0 14 -4 20 -10z"/>
<path d="M1648 1415 c2 -18 -1 -41 -6 -51 -8 -15 -5 -22 19 -36 36 -22 28 -42
-13 -34 -18 3 -27 2 -23 -4 3 -6 12 -10 18 -10 7 0 18 -9 25 -20 7 -11 17 -20
22 -20 6 0 18 9 27 20 10 11 23 20 30 20 7 0 13 4 13 9 0 4 -11 6 -24 4 -35
-7 -42 15 -9 33 25 15 28 22 28 65 0 30 -3 45 -10 38 -5 -5 -9 -27 -10 -49 0
-34 -4 -42 -22 -46 -41 -11 -53 1 -53 55 0 27 -4 52 -8 55 -4 2 -6 -10 -4 -29z"/>
<path d="M2094 1178 c-4 -7 -3 -8 4 -4 6 4 25 0 42 -9 30 -16 40 -9 18 13 -15
15 -55 16 -64 0z"/>
<path d="M2067 1163 c-3 -5 -5 -25 -5 -46 0 -36 1 -37 17 -23 10 9 25 16 34
16 9 0 17 5 17 11 0 7 -11 9 -30 5 -28 -5 -30 -4 -24 19 6 24 0 34 -9 18z"/>
<path d="M1947 1003 c-4 -3 10 -12 30 -19 43 -15 50 -13 28 10 -17 16 -46 21
-58 9z"/>
<path d="M2015 694 l-60 -54 51 0 50 0 11 53 c6 28 10 53 9 54 0 0 -28 -23
-61 -53z"/>
<path d="M865 1371 c-39 -78 -65 -192 -65 -286 0 -81 17 -195 29 -195 3 0 48
18 100 41 52 22 127 51 167 65 71 23 74 24 139 9 37 -9 72 -14 79 -11 6 2 5 5
-4 5 -8 1 -27 7 -41 15 -55 28 -114 27 -202 -5 -146 -53 -168 -60 -178 -57 -5
2 9 29 32 61 58 82 41 71 -23 -15 l-53 -72 -8 59 c-19 139 21 356 70 380 21
11 21 12 3 35 l-18 24 -27 -53z"/>
</g>
</svg>
